<?xml version="1.0" encoding="utf-8"?>
<svg xmlns="http://www.w3.org/2000/svg"
    width="108" height="108"
    viewBox="0 0 108 108">

    <!-- Ghost body: round head + wavy bottom -->
    <path fill="#FFFFFF"
        d="
            M31,54
            C31,36 38,24 54,24
            C70,24 77,36 77,54
            L77,76
            C77,78 75,79 74,78
            L70,74
            L66,78
            C64,80 62,80 60,78
            L56,74
            L52,78
            C50,80 48,80 46,78
            L42,74
            L38,78
            C36,80 34,80 32,78
            L28,74
            L24,78
            C23,79 21,78 21,76
            z" />

    <!-- Left eye -->
    <path fill="#1A1A1A"
        d="M42,44
            C42,42 44,40 46,40
            C48,40 50,42 50,44
            C50,46 48,48 46,48
            C44,48 42,46 42,44
            z" />

    <!-- Right eye -->
    <path fill="#1A1A1A"
        d="M58,44
            C58,42 60,40 62,40
            C64,40 66,42 66,44
            C66,46 64,48 62,48
            C60,48 58,46 58,44
            z" />

    <!-- Eye shine left -->
    <path fill="#FFFFFF"
        d="M44,42.5
            C44,42 45,41.5 45.5,42
            C46,42.5 45.5,43 45,43
            C44.5,43 44,43 44,42.5
            z" />

    <!-- Eye shine right -->
    <path fill="#FFFFFF"
        d="M60,42.5
            C60,42 61,41.5 61.5,42
            C62,42.5 61.5,43 61,43
            C60.5,43 60,43 60,42.5
            z" />

    <!-- Mouth - cute small smile -->
    <path fill="none"
        stroke="#1A1A1A" stroke-width="2" stroke-linecap="round"
        d="M48,54 Q54,58 60,54" />

</svg>
